<svg width="24" height="24" viewBox="0 0 24 24" fill="none" xmlns="http://www.w3.org/2000/svg">
<path d="M2.21973 2.21934C2.09271 2.34633 2.01549 2.51468 2.00209 2.69379C1.98869 2.8729 2.04002 3.05087 2.14673 3.19534L2.21973 3.27934L6.25373 7.31434C4.28676 8.69297 2.88262 10.7344 2.29873 13.0643C2.25371 13.2561 2.28597 13.458 2.38854 13.6262C2.4911 13.7944 2.65574 13.9155 2.84687 13.9633C3.038 14.0111 3.24026 13.9818 3.40995 13.8817C3.57965 13.7816 3.70313 13.6187 3.75373 13.4283C4.27263 11.3603 5.55064 9.56329 7.33373 8.39434L9.14373 10.2043C8.42073 10.9598 8.02232 11.9684 8.03386 13.0141C8.04539 14.0597 8.46594 15.0593 9.20544 15.7986C9.94493 16.538 10.9446 16.9584 11.9902 16.9697C13.0359 16.9811 14.0444 16.5825 14.7997 15.8593L20.7187 21.7793C20.8526 21.9135 21.0322 21.9921 21.2216 21.9992C21.411 22.0063 21.596 21.9415 21.7396 21.8177C21.8831 21.694 21.9744 21.5205 21.9953 21.3321C22.0161 21.1437 21.9648 20.9544 21.8517 20.8023L21.7787 20.7183L15.6657 14.6043L15.6667 14.6023L14.4667 13.4043L11.5967 10.5343H11.5987L8.71873 7.65734L8.71973 7.65534L7.58673 6.52534L3.27973 2.21934C3.13911 2.07889 2.94848 2 2.74973 2C2.55098 2 2.36036 2.07889 2.21973 2.21934ZM10.2037 11.2643L13.7387 14.8003C13.2672 15.2557 12.6357 15.5077 11.9802 15.502C11.3247 15.4963 10.6977 15.2334 10.2342 14.7699C9.77067 14.3064 9.50774 13.6793 9.50205 13.0238C9.49635 12.3684 9.74834 11.7368 10.2037 11.2653V11.2643ZM11.9997 5.49934C10.9997 5.49934 10.0297 5.64734 9.11073 5.92434L10.3477 7.16034C12.4873 6.7367 14.7078 7.15142 16.5502 8.31877C18.3926 9.48611 19.716 11.3168 20.2467 13.4323C20.2985 13.6213 20.4222 13.7824 20.5913 13.8814C20.7604 13.9803 20.9615 14.0091 21.1516 13.9617C21.3417 13.9143 21.5056 13.7944 21.6084 13.6276C21.7113 13.4608 21.7447 13.2605 21.7017 13.0693C21.1595 10.9068 19.9103 8.9874 18.1525 7.61591C16.3948 6.24443 14.2292 5.49947 11.9997 5.49934ZM12.1947 9.00934L15.9957 12.8093C15.9466 11.8172 15.5303 10.8789 14.8278 10.1766C14.1253 9.47427 13.1868 9.05825 12.1947 9.00934Z" fill="#666666" stroke="#666666" stroke-width="0.5"/>
</svg>
